<?xml version="1.0" encoding="iso-8859-1"?>
<!-- Generator: Adobe Illustrator 16.0.0, SVG Export Plug-In . SVG Version: 6.00 Build 0)  -->
<!DOCTYPE svg PUBLIC "-//W3C//DTD SVG 1.1//EN" "http://www.w3.org/Graphics/SVG/1.1/DTD/svg11.dtd">
<svg xmlns="http://www.w3.org/2000/svg" xmlns:xlink="http://www.w3.org/1999/xlink" version="1.1" id="Capa_1" x="0px" y="0px" width="512px" height="512px" viewBox="0 0 612 612" style="enable-background:new 0 0 612 612;" xml:space="preserve">
<g>
	<g>
		<path d="M598.968,72.777c-8.656-8.839-18.98-13.397-31.64-13.397H434.433V34.062c0-11.539-8.935-20.474-20.474-20.474    s-20.474,8.935-20.474,20.474V59.38H218.896V34.062c0-11.539-9.308-20.474-20.847-20.474c-11.547,0-20.473,8.935-20.473,20.474    V59.38H45.045c-12.651,0-23.356,4.559-32.013,13.397C4.566,81.434,0,92.139,0,104.425v448.942    c0,12.285,4.376,23.173,13.032,32.013c8.466,8.656,19.362,13.032,32.013,13.032h522.283c12.659,0,23.174-4.376,31.64-13.032    c8.656-8.848,13.032-19.728,13.032-32.013V104.425C612,92.139,607.441,81.434,598.968,72.777z M571.053,553.367    c0,2.604-1.12,3.725-3.725,3.725H45.045c-1.858,0-4.09-2.232-4.09-3.725V250.718h530.098V553.367z M571.053,209.771H40.955    V104.425c0-2.605,1.485-3.725,4.09-3.725h132.531v8.935c0,11.539,8.926,20.847,20.473,20.847c11.54,0,20.847-9.308,20.847-20.847    V100.7h174.589v8.935c0,11.539,8.935,20.847,20.474,20.847s20.474-9.308,20.474-20.847V100.7h132.896    c2.604,0,3.725,1.12,3.725,3.725V209.771z" fill="#FFFFFF"/>
		<rect x="220.381" y="306.564" width="89.717" height="88.97" fill="#FFFFFF"/>
		<rect x="99.024" y="306.564" width="90.09" height="88.97" fill="#FFFFFF"/>
		<rect x="99.024" y="426.801" width="90.09" height="90.09" fill="#FFFFFF"/>
	</g>
</g>
<g>
</g>
<g>
</g>
<g>
</g>
<g>
</g>
<g>
</g>
<g>
</g>
<g>
</g>
<g>
</g>
<g>
</g>
<g>
</g>
<g>
</g>
<g>
</g>
<g>
</g>
<g>
</g>
<g>
</g>
</svg>
