<?xml version="1.0" encoding="iso-8859-1"?>
<!-- Generator: Adobe Illustrator 18.1.1, SVG Export Plug-In . SVG Version: 6.00 Build 0)  -->
<svg xmlns="http://www.w3.org/2000/svg" xmlns:xlink="http://www.w3.org/1999/xlink" version="1.1" id="Capa_1" x="0px" y="0px" viewBox="0 0 184.973 184.973" style="enable-background:new 0 0 184.973 184.973;" xml:space="preserve" width="512px" height="512px">
<g>
	<g>
		<g>
			<path d="M184.973,149.849H0V35.124h184.973V149.849z M5.967,143.882h173.039V41.091H5.967V143.882z" fill="#FFFFFF" stroke-width="5" stroke="#FFF"/>
		</g>
		<g>
			<g>
				<path d="M92.486,52.422c-22.131,0-40.073,17.942-40.073,40.073c0,22.125,17.942,40.073,40.073,40.073      s40.073-17.948,40.073-40.073C132.56,70.364,114.618,52.422,92.486,52.422z M92.486,127.67      c-19.434,0-35.187-15.759-35.187-35.181c0-19.434,15.759-35.187,35.187-35.187s35.181,15.753,35.181,35.187      C127.667,111.93,111.921,127.67,92.486,127.67z" fill="#FFFFFF" stroke-width="5" stroke="#FFF"/>
			</g>
			<g>
				<path d="M105.154,91.809c-1.927-1.325-5.597-2.745-10.979-4.248V70.579      c3.204,0.119,5.543,1.349,7.011,3.693c0.788,1.277,1.265,2.798,1.426,4.571h6.092c-0.125-3.944-1.408-7.113-3.878-9.511      c-2.482-2.399-6.027-3.759-10.651-4.087V60.68h-3.312v4.636c-4.672,0.048-8.306,1.492-10.896,4.326      c-2.596,2.834-3.884,6.015-3.884,9.547c0,3.95,1.205,7.047,3.61,9.273c2.399,2.232,6.122,3.825,11.17,4.779v18.993      c-3.932-0.322-6.623-1.802-8.079-4.427c-0.817-1.462-1.319-3.783-1.504-6.969h-6.17c0,3.992,0.656,7.166,1.987,9.517      c2.411,4.35,7.011,6.737,13.772,7.178v6.76h3.312v-6.76c4.201-0.465,7.417-1.42,9.654-2.858      c4.022-2.602,6.033-6.993,6.033-13.181C109.862,97.221,108.287,93.993,105.154,91.809z M90.869,86.893      c-2.608-0.507-4.666-1.42-6.206-2.721c-1.533-1.301-2.303-3.103-2.303-5.4c0-1.909,0.65-3.735,1.951-5.478      c1.301-1.742,3.485-2.673,6.558-2.787V86.893z M102.403,108.051c-1.516,2.721-4.254,4.171-8.228,4.35v-18.33      c2.9,0.794,4.976,1.629,6.206,2.512c2.136,1.51,3.21,3.717,3.21,6.623C103.591,105.044,103.197,106.661,102.403,108.051z" fill="#FFFFFF" stroke-width="5" stroke="#FFF"/>
			</g>
		</g>
	</g>
</g>
<g>
</g>
<g>
</g>
<g>
</g>
<g>
</g>
<g>
</g>
<g>
</g>
<g>
</g>
<g>
</g>
<g>
</g>
<g>
</g>
<g>
</g>
<g>
</g>
<g>
</g>
<g>
</g>
<g>
</g>
</svg>
